<?xml version="1.0" encoding="utf-8"?>
<!-- Generator: Adobe Illustrator 19.1.0, SVG Export Plug-In . SVG Version: 6.00 Build 0)  -->
<svg version="1.1" id="Layer_1" xmlns="http://www.w3.org/2000/svg" xmlns:xlink="http://www.w3.org/1999/xlink" x="0px" y="0px"
	 width="3072px" height="1024px" viewBox="0 0 3072 1024" style="enable-background:new 0 0 3072 1024;" xml:space="preserve">
<rect style="fill:none;" width="3072" height="1024"/>
<rect x="2048" style="fill:#38A8E0;" width="1024" height="1024"/>
<rect x="2213" y="189.5" style="fill:#FFFFFF;" width="80.5" height="645"/>
<rect x="2312.5" y="189.5" style="fill:#FFFFFF;" width="80.5" height="645"/>
<polyline style="fill:#FFFFFF;" points="2906,259.5 2906,189.5 2477,189.5 2477,834.5 2557.5,834.5 2557.5,259.5 "/>
<polygon style="fill:#FFFFFF;" points="2575.5,529.1 2575.5,834.5 2655.1,834.5 2655.1,590.6 2885,590.6 2885,529.1 "/>
<polygon style="fill:#FFFFFF;" points="2906,340.3 2906,276.6 2575.5,276.6 2575.5,512 2885,512 2885,448 2655.1,448 2655.1,340.3 
	"/>
<path style="fill:#FFFFFF;" d="M536.7,554.6h69.7c27.3,105.1,43.5,167.8,46.5,189c4-13.1,9.1-32.3,16.2-55.6
	c7.1-23.2,21.2-67.7,42.5-133.4h51.6c30.3,93,49.5,154.6,58.6,188c8.1-39.4,24.3-100,48.5-188H935l-80.5,279.9h-57.6
	c-36.4-119.3-55.9-183.9-59-195.1c-10.1,36.4-30.3,101.1-61.7,195.1h-59.6L536.7,554.6z"/>
<path style="fill:#FFFFFF;" d="M931.9,694.1c0-29.3,6.1-54.6,17.2-76.8s27.3-39.4,48.5-51.6c21.2-12.1,45.5-18.2,71.8-18.2
	c27.3,0,50.5,6.1,70.8,18.2c20.2,12.1,36.4,29.3,46.5,50.5c11.1,21.2,16.2,46.5,16.2,73.8c0,23.2-4,43.5-10.1,61.7
	c-7.1,18.2-16.2,34.4-28.3,46.5s-27.3,22.2-44.5,29.3c-17.2,7.1-35.4,10.1-55.6,10.1c-39.4,0-72.8-13.1-97-40.4
	C944.1,773.9,931.9,738.5,931.9,694.1z M996.6,694.1c0,29.3,7.1,51.6,19.2,66.7c13.1,15.2,30.3,23.2,52.6,23.2
	c21.2,0,39.4-8.1,51.6-23.2c13.1-15.2,19.2-37.4,19.2-65.7c0-29.3-6.1-52.6-18.2-67.7c-12.1-15.2-29.3-23.2-51.6-23.2
	c-21.2,0-39.4,8.1-52.6,23.2C1003.7,643.5,996.6,664.7,996.6,694.1z"/>
<path style="fill:#FFFFFF;" d="M1238.1,834.5v-280h78.6c28.2,0,49.3,2,64.5,5c20.1,5,34.2,14.1,44.3,25.2
	c10.1,12.1,14.1,28.2,14.1,48.3c0,33.2-16.1,58.4-48.3,73.5c11.1,5,21.1,15.1,30.2,31.2c9.1,15.1,26.2,47.3,48.3,96.7h-71.5
	c-17.1-36.3-29.2-60.4-36.3-73.5c-7-13.1-14.1-22.2-20.1-27.2c-5-4-13.1-5-23.2-5h-18.1v105.7L1238.1,834.5L1238.1,834.5z
	 M1302.5,675.4h26.2c11.1,0,20.1-1,27.2-4c7-2,12.1-7,15.1-11.1c3-5,5-12.1,5-20.1s-2-15.1-7-20.1s-11.1-9.1-21.1-11.1
	c-8.1-1-18.1-2-30.2-2h-15.1L1302.5,675.4L1302.5,675.4z"/>
<path style="fill:#FFFFFF;" d="M1497.7,834.5v-280h64.5v222.6H1682v57.4H1497.7L1497.7,834.5z"/>
<path style="fill:#FFFFFF;" d="M1718.3,834.5v-280h72.5c44.3,0,74.5,4,95.7,12.1c25.2,10.1,44.3,26.2,57.4,46.3s19.1,46.3,19.1,78.6
	c0,32.2-7,59.4-21.1,81.6s-35.2,38.3-63.4,49.3c-23.2,8.1-54.4,12.1-94.7,12.1L1718.3,834.5L1718.3,834.5z M1781.7,776.1h18.1
	c27.2,0,47.3-3,58.4-9.1c25.2-13.1,37.3-37.3,37.3-74.5c0-34.2-13.1-58.4-37.3-71.5c-11.1-6-29.2-9.1-55.4-9.1h-22.2L1781.7,776.1
	L1781.7,776.1z"/>
<path style="fill:#FFFFFF;" d="M1258.5,247.3v-57.8h221.2v57.8H1401v222.2h-63.8V247.3H1258.5z"/>
<path style="fill:#FFFFFF;" d="M1508.6,469.5v-280h64.8v107.6h100.7V189.5h63.8v280h-63.8V354.9h-100.7v114.6H1508.6z"/>
<path style="fill:#FFFFFF;" d="M1776.6,189.5H1955v57.8h-113.6v50.8h104.7V354h-104.7v57.8H1963v57.8h-186.4V189.5z"/>
</svg>
