<?xml version="1.0" encoding="utf-8"?>
<!-- Generator: Adobe Illustrator 19.1.0, SVG Export Plug-In . SVG Version: 6.00 Build 0)  -->
<svg version="1.1" id="Layer_1" xmlns="http://www.w3.org/2000/svg" xmlns:xlink="http://www.w3.org/1999/xlink" x="0px" y="0px"
	 width="6160px" height="1024px" viewBox="0 0 6160 1024" style="enable-background:new 0 0 6160 1024;" xml:space="preserve">
<rect x="5136" style="fill:#38A8E0;" width="1024" height="1024"/>
<rect x="5301" y="189.5" style="fill:#FFFFFF;" width="80.5" height="645"/>
<rect x="5400.5" y="189.5" style="fill:#FFFFFF;" width="80.5" height="645"/>
<polyline style="fill:#FFFFFF;" points="5994,259.5 5994,189.5 5565,189.5 5565,834.5 5645.5,834.5 5645.5,259.5 "/>
<polygon style="fill:#FFFFFF;" points="5663.5,529.1 5663.5,834.5 5743.1,834.5 5743.1,590.6 5973,590.6 5973,529.1 "/>
<polygon style="fill:#FFFFFF;" points="5994,340.3 5994,276.6 5663.5,276.6 5663.5,512 5973,512 5973,448 5743.1,448 5743.1,340.3 
	"/>
<path style="fill:#FFFFFF;" d="M11.7,324.1V189.6h507v134.5H337.5v510.7h-148V324.1H11.7z"/>
<path style="fill:#FFFFFF;" d="M583,834.6v-645h148v246.6h231.4V189.6h148v645h-148V570.5H731v264.1H583z"/>
<path style="fill:#FFFFFF;" d="M1195.4,834.6v-645h408.7V322h-260.4v116.9H1584v128.8h-240.3V702h277.7v132.6H1195.4z"/>
<path style="fill:#FFFFFF;" d="M1790.3,189.6l162.2-0.1c63.3,240.9,99.3,385.5,107.8,433.9c7.6-30.8,20.1-73.1,36.8-127
	c16.7-54.2,49.3-156.5,97.4-306.9H2313c68.5,212.3,113.3,356.5,134.3,433c19.2-88.9,56-233.2,110.8-433h148l-184.8,645h-134
	c-83.1-272.6-128.2-422.2-135.2-448.7c-23.1,82.5-70,232.5-141,448.7H1975L1790.3,189.6z"/>
<path style="fill:#FFFFFF;" d="M2697,511.4c0-65.8,13.4-124.2,40.2-175.1c26.8-50.9,64-89.8,112.1-117.5s102.9-41.4,164.4-41.4
	c62.1,0,116.3,14,163.2,41.7c46.9,28,82.5,66.4,106.9,115.7c24.7,49,36.8,105.7,36.8,169.3c0,52.1-7.6,99.6-23.1,142.2
	s-37.2,78.6-65.2,107.5s-61.5,51.5-100.5,67.3s-81.9,23.8-128.5,23.8c-91.4,0-165.1-30.5-221.4-91.7
	C2725.3,692.9,2697,612.2,2697,511.4z M2845,510.8c0,66.1,14.9,116.9,44.8,152.6c29.8,35.6,69.7,53.3,119.4,53.3
	c49.9,0,89.8-17.4,119.1-52.4c29.2-35,43.9-85.3,43.9-151c0-67.9-14.3-119.4-43.2-154.4s-67.6-52.4-116.6-52.4
	c-50.2,0-90.7,17.4-121.5,52.1C2860.5,393.6,2845,443.8,2845,510.8z"/>
<path style="fill:#FFFFFF;" d="M3395,834.6v-645h181.2c64.6,0,114.2,4.2,149.2,12.7c45.1,11.6,78.6,31.1,100.8,58.2
	c22.2,27.1,33.2,64.6,33.2,111.8c0,77.3-36.8,134-110.8,169.3c25.9,12.2,49.3,35.9,71,71.6c21.6,35.6,59.1,109.4,112.1,221.5h-164.4
	c-38.1-82.8-65.5-139.6-82.2-170c-16.7-30.5-32.6-51.2-47.5-62.1c-11.6-7.9-28.9-11.9-51.8-11.9H3543v244L3395,834.6L3395,834.6z
	 M3543,469.1h59.4c24.4,0,45.1-2.7,62.4-8.5c16.4-6.1,28-14.9,35.3-26.8c7.3-11.9,11-27.1,11-46c0-19.2-4.9-35-14.6-47.5
	c-9.7-12.2-26.2-20.7-49.3-24.7c-18.6-3.3-41.7-4.9-69.4-4.9H3543V469.1L3543,469.1z"/>
<path style="fill:#FFFFFF;" d="M3988.5,834.6v-645h148v510.6h275.3v134.4H3988.5z"/>
<path style="fill:#FFFFFF;" d="M4492.1,834.6v-645h164.8c100.2,0,173,9.1,219,27.6c57.9,23.5,101.7,58.8,131,106
	c29.5,47.2,44.2,107.8,44.2,181.8c0,74.3-15.8,137.1-47.8,187.6c-31.7,50.9-79.8,88.3-144.1,112.4c-53,19.5-125.5,29.5-217.2,29.5
	L4492.1,834.6L4492.1,834.6z M4640.5,702h42c64,0,109-7,134.9-21c57.3-29.8,85.9-87.4,85.9-172.7c0-78.6-28.3-134-85-165.7
	c-24.4-14-67-21-127.3-21h-50.6V702H4640.5z"/>
<path style="fill:#3EA8DF;" d="M11.7,104.6c18.9-21.8,30.5-34.9,38.5-45.8c5.1-7.3,8.7-14.5,8.7-21.1c0-10.2-6.5-15.3-16-15.3
	c-8.7,0-16.7,2.9-25.4,10.2V13.1C26.2,6.6,36.4,2.9,48,2.9c21.8,0,32,12.3,32,30.5c0.7,10.2-2.9,19.6-11.6,30.5
	C62.6,71.2,56.8,77.7,50.2,85c3.6,0,11.6,0,35.6,0v19.6H11.7z"/>
<path style="fill:#3EA8DF;" d="M135.2,106c-26.9,0-37-24-37-50.8c0-28.3,11.6-52.3,37.8-52.3c29.1,0,37,24.7,37,52.3
	C172.9,82.1,162,106,135.2,106z M135.9,22.5c-7.3,0-15.3,5.8-15.3,32.7s8.7,30.5,15.3,30.5s14.5-3.6,14.5-31.2
	C151.1,28.3,143.9,22.5,135.9,22.5z"/>
<path style="fill:#3EA8DF;" d="M204.9,104.6V30.5l-17.4,7.3V16.7l40.7-15.3v102.4H205v0.8H204.9z"/>
<path style="fill:#3EA8DF;" d="M292.8,39.9c16.7,0,29.1,10.2,29.1,31.2c0,21.8-13.8,34.9-34.9,34.9c-22.5,0-37.8-16-37.8-48.7
	c0-37.8,20.3-54.5,43.6-54.5c9.4,0,16.7,0.7,22.5,5.1v21.8c-6.5-5.1-13.8-6.5-20.3-6.5c-16.7,0-23.2,10.2-24,27.6
	C275.3,44.3,283.3,39.9,292.8,39.9z M274.6,78.4c2.2,5.8,6.5,8.7,12.3,8.7c7.3,0,13.8-5.1,13.8-16.7c0-10.2-5.8-14.5-13.1-14.5
	s-13.1,4.4-15.3,10.9C272.4,70.4,273.2,74.8,274.6,78.4z"/>
<path style="fill:#FFFFFF;" d="M373.4,104.6V2.2h55.2v10.2h-44.3v34.1h41.4v10.2h-42.1v37.8h47.2v10.2h-57.4L373.4,104.6
	L373.4,104.6z"/>
<path style="fill:#FFFFFF;" d="M449.6,2.2h24c10.9,0,24,0.7,32,5.1c17.4,8,26.1,24,26.1,45.8c0,22.5-9.4,39.9-29.1,47.9
	c-8.7,2.9-20.3,4.4-32.7,4.4h-20.3V2.2z M472.2,94.4c8,0,20.3-0.7,27.6-4.4c13.1-6.5,21.1-18.9,21.1-37.8c0-15.3-5.1-29.1-18.9-36.3
	c-6.5-3.6-17.4-4.4-26.1-4.4h-15.3v82.8L472.2,94.4L472.2,94.4L472.2,94.4z"/>
<path style="fill:#FFFFFF;" d="M554.2,104.6V2.2h10.9v102.4L554.2,104.6L554.2,104.6z"/>
<path style="fill:#FFFFFF;" d="M613.8,104.6v-93h-31.2V2.2H656v10.2h-31.2v92.2H613.8z"/>
<path style="fill:#FFFFFF;" d="M674.1,104.6V2.2H685v102.4L674.1,104.6L674.1,104.6z"/>
<path style="fill:#FFFFFF;" d="M754.7,106c-28.3,0-47.9-21.1-47.9-53c0-31.2,20.3-53,49.4-53c30.5,0,47.9,23.2,47.9,53
	C804.1,85,783.7,106,754.7,106z M756.1,9.4c-21.8,0-37.8,16-37.8,43.6c0,26.9,15.3,43.6,37.8,43.6s37.8-16.7,37.8-42.9
	C792.4,26.9,778.6,9.4,756.1,9.4z"/>
<path style="fill:#FFFFFF;" d="M825.9,104.6V2.2h9.4c46.5,64.6,51.6,71.9,58.8,82.1c0-12.3,0-27.6,0-82.1h10.2v102.4h-8.7
	c-46.5-65.4-53.7-74.8-59.6-84.2c0,10.2,0,19.6,0,84.2H825.9z"/>
</svg>
